<svg xmlns="http://www.w3.org/2000/svg" width="800" height="800" viewBox="0 0 800 800" version="1.1"><path d="M 264 37.031 C 259.875 38.009, 256.275 38.903, 256 39.019 C 255.725 39.135, 254.713 39.150, 253.750 39.052 C 252.787 38.954, 252 39.310, 252 39.844 C 252 40.377, 251.100 40.577, 250 40.290 C 248.900 40.002, 248 40.227, 248 40.790 C 248 41.352, 247.100 41.577, 246 41.290 C 244.900 41.002, 244 41.207, 244 41.744 C 244 42.282, 240.400 43.747, 236 45 C 231.600 46.253, 228 47.714, 228 48.246 C 228 48.778, 227.325 48.955, 226.500 48.638 C 225.675 48.322, 225 48.525, 225 49.090 C 225 49.656, 224.550 49.840, 224 49.500 C 223.450 49.160, 223 49.359, 223 49.941 C 223 50.523, 222.662 50.927, 222.250 50.839 C 221.485 50.674, 219.590 51.392, 212.500 54.536 C 210.300 55.511, 208.162 56.239, 207.750 56.154 C 207.338 56.069, 207 56.477, 207 57.059 C 207 57.641, 206.550 57.840, 206 57.500 C 205.450 57.160, 205 57.359, 205 57.941 C 205 58.523, 204.662 58.918, 204.250 58.817 C 203.201 58.561, 193.660 63.283, 192.765 64.500 C 192.276 65.167, 192.020 65.167, 192 64.500 C 191.980 63.833, 191.724 63.833, 191.235 64.500 C 190.831 65.050, 187.466 67.075, 183.758 69 C 180.051 70.925, 177.013 72.864, 177.008 73.309 C 177.004 73.754, 176.547 73.838, 175.993 73.496 C 175.439 73.153, 174.717 73.574, 174.388 74.431 C 174.059 75.288, 173.388 75.740, 172.895 75.435 C 172.403 75.131, 172 75.359, 172 75.941 C 172 76.523, 171.433 77, 170.740 77 C 170.047 77, 168.266 78.125, 166.783 79.500 C 165.301 80.875, 163.823 82, 163.501 82 C 163.178 82, 160.466 83.809, 157.472 86.020 C 154.479 88.232, 151.807 89.919, 151.534 89.770 C 151.262 89.622, 150.329 90.513, 149.463 91.750 C 148.596 92.987, 147.247 94, 146.466 94 C 145.685 94, 144.309 95.125, 143.408 96.500 C 142.507 97.875, 141.294 99, 140.712 99 C 139.630 99, 138.495 100.049, 122 116.284 C 109.521 128.567, 105.747 132.890, 95.126 147.070 C 89.353 154.778, 81.301 166.989, 79.348 171 C 78.946 171.825, 77.177 174.975, 75.417 178 C 73.658 181.025, 70.993 186.425, 69.496 190 C 68 193.575, 66.276 196.813, 65.667 197.196 C 65.057 197.578, 64.884 198.217, 65.282 198.616 C 65.681 199.014, 65.395 200.276, 64.648 201.420 C 63.900 202.564, 61.762 208.225, 59.896 214 C 58.031 219.775, 56.214 224.725, 55.859 225 C 55.504 225.275, 54.167 230.225, 52.886 236 C 51.606 241.775, 50.192 246.761, 49.745 247.080 C 49.298 247.399, 49.223 248.417, 49.578 249.343 C 49.933 250.268, 49.716 251.638, 49.095 252.386 C 48.474 253.134, 48.249 254.484, 48.595 255.386 C 48.941 256.288, 48.763 257.582, 48.200 258.263 C 47.637 258.943, 47.148 260.625, 47.113 262 C 47.079 263.375, 46.331 270.350, 45.453 277.500 C 43.650 292.170, 44.035 335.012, 46.060 345 C 46.674 348.025, 47.157 351.379, 47.134 352.454 C 47.112 353.529, 47.576 354.989, 48.165 355.699 C 48.754 356.409, 49 357.892, 48.712 358.995 C 48.423 360.098, 48.648 361, 49.210 361 C 49.773 361, 49.975 361.989, 49.658 363.198 C 49.342 364.407, 49.462 365.869, 49.925 366.448 C 50.387 367.027, 51.511 370.875, 52.422 375 C 53.333 379.125, 54.759 383.967, 55.591 385.761 C 56.424 387.555, 56.798 389.517, 56.424 390.123 C 56.050 390.728, 56.166 391.511, 56.682 391.862 C 57.197 392.213, 58.655 395.650, 59.921 399.500 C 61.187 403.350, 62.622 406.928, 63.111 407.450 C 63.600 407.973, 64 409.398, 64 410.617 C 64 411.836, 64.338 412.983, 64.750 413.167 C 65.163 413.350, 67.042 417.100, 68.927 421.500 C 70.812 425.900, 74.035 432.507, 76.089 436.183 C 78.142 439.859, 80.118 443.796, 80.479 444.933 C 80.840 446.070, 81.554 447, 82.067 447 C 82.580 447, 83 447.488, 83 448.085 C 83 448.682, 85.616 453.070, 88.814 457.835 C 92.012 462.601, 94.922 467.288, 95.283 468.250 C 95.643 469.213, 96.401 470, 96.969 470 C 97.536 470, 98 470.499, 98 471.108 C 98 471.718, 100.925 475.752, 104.500 480.074 C 108.075 484.395, 111 488.213, 111 488.558 C 111 489.354, 116.313 494.989, 128.169 506.772 C 142.741 521.252, 144.602 523, 145.446 523 C 145.880 523, 147.711 524.237, 149.514 525.750 C 151.317 527.263, 154.527 529.958, 156.646 531.740 C 158.766 533.521, 161.014 534.984, 161.643 534.990 C 162.272 534.995, 163.056 535.704, 163.386 536.563 C 163.716 537.423, 164.442 537.845, 165 537.500 C 165.558 537.155, 166.262 537.519, 166.565 538.309 C 166.868 539.099, 169.115 540.773, 171.558 542.030 C 174.001 543.286, 176 544.694, 176 545.157 C 176 545.621, 176.852 546, 177.893 546 C 180.063 546, 181.454 548.602, 179.823 549.610 C 179.075 550.072, 178.984 552.670, 179.533 557.892 C 179.973 562.076, 180.264 568.313, 180.179 571.750 C 180.089 575.426, 180.445 578, 181.044 578 C 181.604 578, 182.020 579.462, 181.967 581.250 C 181.832 585.861, 185.804 607.059, 187.095 608.614 C 187.687 609.328, 187.901 610.351, 187.570 610.887 C 187.238 611.423, 187.432 612.149, 188 612.500 C 188.568 612.851, 188.743 613.607, 188.388 614.181 C 188.034 614.754, 188.139 615.511, 188.622 615.862 C 189.105 616.213, 190.828 620.550, 192.452 625.500 C 194.075 630.450, 195.669 634.725, 195.993 635 C 196.318 635.275, 198.070 638.875, 199.886 643 C 204.903 654.392, 215.524 671.640, 223.739 681.736 C 226.083 684.616, 228 687.221, 228 687.526 C 228 687.831, 229.687 689.765, 231.750 691.824 C 233.813 693.883, 237.311 697.578, 239.524 700.034 C 243.973 704.970, 251.114 711.268, 261 718.972 C 264.575 721.758, 268.044 724.479, 268.708 725.019 C 269.372 725.558, 270.385 726, 270.958 726 C 271.531 726, 272 726.450, 272 727 C 272 727.550, 272.627 728, 273.393 728 C 274.159 728, 275.045 728.675, 275.362 729.500 C 275.678 730.325, 276.609 731, 277.430 731 C 278.250 731, 279.840 731.985, 280.961 733.189 C 282.082 734.392, 283 735.079, 283 734.715 C 283 734.350, 285.181 735.338, 287.848 736.910 C 290.514 738.482, 293.664 740.076, 294.848 740.452 C 296.031 740.827, 297 741.554, 297 742.067 C 297 742.580, 297.337 742.931, 297.750 742.846 C 298.163 742.761, 300.300 743.489, 302.500 744.464 C 307.641 746.744, 310.299 747.751, 311.303 747.800 C 311.744 747.821, 313.192 748.551, 314.519 749.421 C 315.847 750.291, 317.961 751.193, 319.217 751.427 C 320.472 751.660, 321.613 751.941, 321.750 752.051 C 321.887 752.160, 322.337 752.313, 322.750 752.390 C 323.163 752.467, 323.950 752.795, 324.500 753.118 C 325.050 753.441, 328.875 754.546, 333 755.573 C 337.125 756.601, 340.792 757.858, 341.149 758.366 C 341.506 758.875, 342.504 759.021, 343.367 758.689 C 344.230 758.358, 345.228 758.560, 345.585 759.138 C 345.942 759.716, 347.317 759.981, 348.641 759.728 C 349.965 759.475, 351.284 759.651, 351.573 760.119 C 351.863 760.587, 353.089 760.965, 354.300 760.960 C 355.510 760.954, 359.650 761.481, 363.500 762.130 C 373.085 763.745, 436.680 763.777, 448 762.173 C 452.675 761.510, 458.075 760.742, 460 760.467 C 461.925 760.191, 464.962 759.973, 466.750 759.982 C 468.538 759.991, 470 759.500, 470 758.891 C 470 758.191, 470.978 758.029, 472.655 758.450 C 474.115 758.816, 475.578 758.735, 475.905 758.270 C 476.232 757.805, 482.019 756.376, 488.764 755.094 C 495.509 753.813, 501.247 752.410, 501.515 751.976 C 501.783 751.543, 502.902 751.423, 504.001 751.711 C 505.163 752.014, 506 751.741, 506 751.058 C 506 750.411, 506.500 750.191, 507.112 750.569 C 507.723 750.947, 508.511 750.842, 508.862 750.336 C 509.213 749.829, 514.112 748.142, 519.750 746.586 C 525.388 745.030, 530 743.335, 530 742.819 C 530 742.304, 530.500 742.191, 531.112 742.569 C 531.723 742.947, 532.511 742.836, 532.862 742.322 C 533.213 741.809, 537.100 740.091, 541.500 738.506 C 545.900 736.921, 552.932 733.908, 557.126 731.812 C 561.320 729.715, 565.258 728, 565.876 728 C 566.494 728, 567 727.523, 567 726.941 C 567 726.359, 567.450 726.160, 568 726.500 C 568.550 726.840, 569 726.615, 569 726 C 569 725.385, 569.450 725.160, 570 725.500 C 570.550 725.840, 571.007 725.754, 571.016 725.309 C 571.024 724.864, 573.274 723.399, 576.016 722.053 C 578.757 720.707, 581 719.245, 581 718.803 C 581 718.361, 581.670 718, 582.489 718 C 583.307 718, 584.897 717.212, 586.021 716.250 C 587.145 715.288, 588.388 714.497, 588.782 714.494 C 590.345 714.481, 604.254 705.115, 608.084 701.497 C 608.955 700.673, 609.987 700, 610.376 700 C 611.104 700, 612.703 698.807, 616.072 695.750 C 617.132 694.788, 618.286 694, 618.635 694 C 618.985 694, 620.314 692.988, 621.588 691.750 C 622.863 690.513, 625.575 688.150, 627.615 686.500 C 640.190 676.328, 659.960 656.545, 670 644.087 C 671.925 641.698, 674.288 638.901, 675.250 637.872 C 676.212 636.842, 677 635.566, 677 635.035 C 677 634.505, 677.900 633.589, 679 633 C 680.100 632.411, 681 631.256, 681 630.433 C 681 629.611, 681.675 628.678, 682.500 628.362 C 683.325 628.045, 684 627.412, 684 626.954 C 684 626.496, 686.410 622.762, 689.356 618.656 C 694.200 611.904, 699.964 602.653, 707.272 589.901 C 713.262 579.448, 725.198 554.750, 726.555 550 C 726.948 548.625, 727.568 547.275, 727.933 547 C 728.298 546.725, 729.919 542.563, 731.535 537.750 C 733.151 532.938, 734.803 529, 735.205 529 C 735.608 529, 735.678 528.325, 735.362 527.500 C 735.045 526.674, 735.332 526, 736 526 C 736.668 526, 736.960 525.339, 736.651 524.532 C 736.341 523.725, 736.466 522.830, 736.929 522.544 C 737.392 522.258, 738.774 517.963, 740 513 C 741.226 508.037, 742.608 503.742, 743.071 503.456 C 743.534 503.170, 743.689 502.353, 743.416 501.640 C 743.142 500.928, 743.450 499.030, 744.101 497.422 C 744.751 495.815, 745.429 493.825, 745.607 493 C 745.785 492.175, 747.035 486.325, 748.385 480 C 749.735 473.675, 750.925 468.275, 751.030 468 C 751.135 467.725, 751.145 466.530, 751.052 465.346 C 750.958 464.161, 751.360 462.895, 751.945 462.534 C 752.529 462.173, 752.730 460.774, 752.392 459.426 C 752.054 458.077, 752.265 456.385, 752.862 455.666 C 753.459 454.947, 753.915 453.040, 753.876 451.429 C 753.837 449.818, 754.288 445.223, 754.879 441.218 C 757.982 420.184, 757.994 369.435, 754.900 348 C 754.305 343.875, 753.819 339.375, 753.821 338 C 753.822 336.625, 753.394 334.981, 752.869 334.346 C 752.344 333.711, 752.207 332.023, 752.565 330.596 C 752.991 328.900, 752.808 328, 752.037 328 C 751.388 328, 750.956 326.988, 751.077 325.750 C 751.198 324.512, 751.047 322.825, 750.741 322 C 750.435 321.175, 749.445 316.562, 748.541 311.749 C 747.637 306.936, 746.250 301.449, 745.459 299.555 C 744.667 297.661, 744.289 295.412, 744.617 294.556 C 744.957 293.670, 744.687 293, 743.990 293 C 743.259 293, 742.977 292.195, 743.290 291 C 743.577 289.900, 743.490 289, 743.095 289 C 742.701 289, 741.792 286.637, 741.076 283.750 C 740.360 280.863, 738.883 276.475, 737.794 274 C 736.705 271.525, 735.800 268.488, 735.782 267.250 C 735.764 266.012, 735.427 265, 735.033 265 C 734.639 265, 733.747 263.087, 733.051 260.750 C 732.356 258.413, 730.909 254.700, 729.838 252.500 C 728.766 250.300, 726.349 244.807, 724.467 240.294 C 722.585 235.780, 718.786 228.017, 716.023 223.041 C 713.260 218.066, 711 213.779, 711 213.515 C 711 213.251, 709.200 210.094, 707 206.500 C 704.800 202.906, 703 199.523, 703 198.982 C 703 198.442, 702.550 198, 702 198 C 701.450 198, 701 197.547, 701 196.993 C 701 196.439, 698.450 192.276, 695.334 187.743 C 686.941 175.534, 685.623 173.687, 684.250 172.206 C 683.563 171.464, 683 170.540, 683 170.151 C 683 169.763, 681.763 168.083, 680.250 166.417 C 678.737 164.751, 676.319 161.838, 674.876 159.944 C 666.861 149.423, 640.969 122.591, 630.541 114 C 626.870 110.975, 622.209 107.011, 620.183 105.190 C 618.157 103.370, 615.263 101.221, 613.750 100.415 C 612.237 99.608, 611 98.541, 611 98.042 C 611 97.543, 610.181 96.875, 609.179 96.557 C 608.177 96.239, 605.927 94.580, 604.179 92.871 C 602.431 91.161, 601 90.055, 601 90.413 C 601 90.770, 598.544 89.249, 595.543 87.032 C 592.541 84.814, 589.616 83, 589.043 83 C 588.469 83, 588 82.550, 588 82 C 588 81.450, 587.325 81, 586.500 81 C 585.675 81, 585 80.601, 585 80.114 C 585 79.627, 583.312 78.429, 581.250 77.453 C 579.188 76.477, 576.952 74.963, 576.282 74.089 C 575.612 73.215, 575.049 72.843, 575.032 73.263 C 575.014 73.682, 573.313 72.960, 571.250 71.659 C 569.188 70.357, 566.487 68.971, 565.250 68.579 C 564.013 68.186, 563 67.419, 563 66.874 C 563 66.328, 562.588 66.136, 562.085 66.447 C 561.582 66.758, 561.020 66.609, 560.835 66.116 C 560.651 65.622, 558.195 64.113, 555.378 62.761 L 550.256 60.304 537.637 72.814 L 525.018 85.323 528.759 88.912 C 533.656 93.608, 547.263 110.479, 548.202 113.018 C 548.606 114.108, 549.400 115, 549.968 115 C 550.535 115, 551 115.637, 551 116.417 C 551 117.196, 551.356 117.983, 551.791 118.167 C 552.585 118.501, 559 127.724, 559 128.531 C 559 128.767, 560.551 131.386, 562.447 134.350 C 566.022 139.938, 573.221 154.632, 574.524 159 C 574.934 160.375, 575.547 161.725, 575.885 162 C 577.040 162.937, 583.372 179.494, 583.248 181.250 C 583.180 182.213, 583.498 183, 583.954 183 C 584.411 183, 585.570 186.262, 586.529 190.250 C 587.488 194.237, 588.661 197.996, 589.135 198.601 C 589.610 199.207, 590.080 201.007, 590.180 202.601 C 590.281 204.196, 590.770 206.043, 591.267 206.706 C 591.765 207.370, 591.851 208.432, 591.458 209.068 C 591.065 209.704, 591.206 210.511, 591.771 210.862 C 592.337 211.213, 593.771 217.125, 594.960 224 C 598.385 243.817, 599.103 249.849, 599.038 258.250 C 599.014 261.413, 599.344 264, 599.773 264 C 600.202 264, 600.553 273.900, 600.553 286 C 600.553 298.100, 600.202 308, 599.773 308 C 599.344 308, 599.014 310.587, 599.038 313.750 C 599.063 316.913, 598.828 321.525, 598.517 324 C 598.206 326.475, 597.769 330.075, 597.544 332 C 596.443 341.456, 592.758 359.531, 591.813 360.116 C 591.225 360.479, 591.065 361.296, 591.458 361.932 C 591.851 362.568, 591.763 363.630, 591.263 364.294 C 590.763 364.957, 590.294 366.617, 590.222 367.982 C 590.149 369.348, 589.647 371.373, 589.106 372.482 C 588.566 373.592, 587.404 377.104, 586.524 380.286 C 585.643 383.468, 584.422 387.293, 583.808 388.786 C 583.195 390.279, 582.572 392.093, 582.425 392.817 C 582.278 393.541, 581.282 396.016, 580.213 398.317 C 579.144 400.618, 577.668 404.188, 576.934 406.250 C 576.199 408.313, 575.239 410, 574.799 410 C 574.360 410, 574 410.495, 574 411.100 C 574 413.028, 566.034 429.047, 563.978 431.254 C 562.890 432.422, 562.001 433.855, 562.002 434.439 C 562.005 435.655, 552.906 449.329, 551.758 449.833 C 551.341 450.017, 551 450.804, 551 451.583 C 551 452.363, 550.539 453, 549.975 453 C 549.412 453, 548.518 454.137, 547.990 455.526 C 547.462 456.915, 546.348 458.313, 545.515 458.633 C 544.682 458.952, 544 459.728, 544 460.356 C 544 461.681, 542.424 463.386, 526.531 479.250 C 520.057 485.712, 514.155 491, 513.415 491 C 512.676 491, 511.589 491.900, 511 493 C 510.411 494.100, 509.270 495, 508.465 495 C 507.659 495, 507 495.461, 507 496.025 C 507 496.588, 505.875 497.477, 504.500 498 C 503.125 498.523, 502 499.412, 502 499.975 C 502 500.539, 501.363 501, 500.583 501 C 499.804 501, 499.017 501.337, 498.833 501.750 C 498.391 502.746, 488.126 509, 486.934 509 C 486.420 509, 485.999 509.337, 485.998 509.750 C 485.996 510.163, 483.184 511.850, 479.748 513.500 C 476.311 515.150, 473.349 516.840, 473.165 517.256 C 472.980 517.672, 472.418 517.758, 471.915 517.447 C 471.412 517.136, 471 517.291, 471 517.791 C 471 518.291, 467.962 519.977, 464.250 521.538 C 460.538 523.100, 457.213 524.800, 456.862 525.317 C 456.511 525.833, 455.762 525.971, 455.197 525.622 C 454.633 525.273, 454.012 525.465, 453.817 526.048 C 453.623 526.632, 452.797 527.240, 451.982 527.401 C 451.167 527.561, 449.233 528.212, 447.685 528.846 C 446.137 529.481, 444.703 530, 444.500 530 C 444.297 530, 442.863 530.525, 441.315 531.166 C 439.767 531.808, 438.163 532.426, 437.750 532.541 C 437.337 532.656, 436.663 532.858, 436.250 532.990 C 435.837 533.123, 435.050 533.293, 434.500 533.370 C 433.950 533.447, 432.600 534.006, 431.500 534.612 C 430.400 535.219, 426.350 536.526, 422.500 537.516 C 418.650 538.506, 415.108 539.660, 414.628 540.080 C 414.149 540.500, 413.182 540.623, 412.479 540.354 C 411.777 540.084, 410.931 540.302, 410.600 540.838 C 410.269 541.374, 409.098 541.577, 407.999 541.289 C 406.848 540.989, 406 541.259, 406 541.927 C 406 542.565, 405.438 542.997, 404.750 542.886 C 404.063 542.775, 402.825 542.959, 402 543.295 C 399.179 544.442, 376.506 548.117, 372.831 548.023 C 370.813 547.971, 368.855 548.426, 368.478 549.035 C 368.047 549.733, 366.346 549.896, 363.863 549.477 C 361.700 549.111, 359.384 549.234, 358.715 549.750 C 355.977 551.862, 304 551.815, 304 549.700 C 304 549.125, 302.181 548.977, 299.544 549.339 C 297.033 549.683, 294.825 549.526, 294.488 548.980 C 294.158 548.446, 292.451 548.041, 290.694 548.079 C 285.014 548.201, 261.299 543.430, 259.226 541.749 C 258.525 541.180, 257.666 541, 257.318 541.349 C 256.969 541.697, 256.127 541.521, 255.447 540.956 C 254.767 540.392, 253.826 540.017, 253.355 540.124 C 252.885 540.230, 251.825 540.056, 251 539.737 C 250.175 539.418, 246.350 538.154, 242.500 536.930 C 238.650 535.705, 235.213 534.262, 234.862 533.723 C 234.511 533.185, 233.762 533.029, 233.197 533.378 C 232.633 533.727, 232.020 533.672, 231.835 533.256 C 231.452 532.392, 221.114 527.836, 219.305 527.734 C 218.150 527.669, 218.169 524.913, 219.363 519 C 220.297 514.374, 224.158 500.554, 224.804 499.522 C 225.156 498.960, 225.534 497.902, 225.645 497.172 C 225.755 496.441, 226.179 495.091, 226.587 494.172 C 226.994 493.252, 227.378 492.275, 227.439 492 C 228.325 488.032, 239.675 466.213, 243.119 461.856 C 244.704 459.852, 246 457.762, 246 457.212 C 246 456.662, 247.350 454.766, 249 453 C 250.650 451.234, 252 449.418, 252 448.966 C 252 446.072, 286.858 413.191, 288.347 414.681 C 288.680 415.014, 289.237 414.547, 289.583 413.643 C 289.930 412.739, 290.841 412, 291.607 412 C 292.373 412, 293 411.550, 293 411 C 293 410.450, 293.590 410, 294.311 410 C 295.033 410, 296.498 409.213, 297.567 408.250 C 298.636 407.288, 301.534 405.421, 304.006 404.101 C 306.478 402.782, 309.237 401.071, 310.138 400.298 C 311.039 399.525, 312.727 398.821, 313.888 398.733 C 315.050 398.646, 316 398.194, 316 397.728 C 316 397.263, 316.450 397.160, 317 397.500 C 317.550 397.840, 318 397.738, 318 397.273 C 318 396.808, 321.262 395.319, 325.250 393.964 C 329.238 392.609, 332.642 391.188, 332.815 390.806 C 332.988 390.425, 333.775 390.360, 334.565 390.663 C 335.354 390.966, 336 390.686, 336 390.040 C 336 389.320, 336.775 389.111, 338 389.500 C 339.147 389.864, 340 389.680, 340 389.067 C 340 388.480, 340.337 388.079, 340.750 388.177 C 341.163 388.274, 343.359 387.821, 345.632 387.170 C 352.719 385.140, 369.240 382.779, 375.156 382.950 C 378.266 383.041, 381.105 382.639, 381.465 382.057 C 382.295 380.714, 391.675 380.665, 392.500 382 C 393.359 383.391, 405.712 383.275, 406.582 381.868 C 407.063 381.089, 409.709 380.938, 415.071 381.386 C 419.355 381.743, 423.104 381.641, 423.402 381.159 C 423.700 380.676, 426.906 379.978, 430.527 379.608 C 438.924 378.747, 452.237 376.050, 453.372 374.979 C 453.851 374.526, 454.864 374.394, 455.622 374.685 C 456.380 374.976, 457 374.730, 457 374.138 C 457 373.547, 457.675 373.322, 458.500 373.638 C 459.326 373.955, 460 373.668, 460 373 C 460 372.332, 460.674 372.045, 461.500 372.362 C 462.325 372.678, 463 372.501, 463 371.969 C 463 371.436, 463.337 371.071, 463.750 371.159 C 464.596 371.338, 466.510 370.624, 473 367.709 C 475.475 366.598, 477.837 365.759, 478.250 365.844 C 478.663 365.930, 479 365.475, 479 364.833 C 479 364.192, 479.282 363.949, 479.627 364.294 C 480.154 364.820, 488.415 359.860, 490 358.066 C 490.844 357.110, 496.886 353, 497.447 353 C 498.153 353, 516.229 334.734, 517.500 332.736 C 518.050 331.871, 520.220 328.640, 522.322 325.554 C 527.609 317.794, 533.351 305.921, 536.132 297 C 537.418 292.875, 538.702 289.275, 538.985 289 C 539.268 288.725, 539.603 287.825, 539.728 287 C 539.853 286.175, 540.665 282.350, 541.531 278.500 C 542.459 274.370, 543.341 264.098, 543.680 253.448 L 544.256 235.395 526.378 234.150 C 516.545 233.465, 506.475 232.440, 504 231.871 C 501.525 231.303, 498.488 230.827, 497.250 230.813 C 496.012 230.800, 495 230.334, 495 229.778 C 495 229.222, 493.891 228.979, 492.535 229.238 C 491.179 229.497, 489.942 229.437, 489.785 229.105 C 489.628 228.772, 484.561 227.237, 478.524 225.694 C 472.488 224.151, 467.251 222.405, 466.886 221.816 C 466.522 221.226, 465.723 221.053, 465.112 221.431 C 464.500 221.809, 464 221.713, 464 221.217 C 464 220.722, 462.087 219.746, 459.750 219.049 C 457.413 218.351, 454.150 217.062, 452.500 216.185 C 450.850 215.307, 449.163 214.681, 448.750 214.794 C 448.337 214.907, 448 214.523, 448 213.941 C 448 213.359, 447.550 213.160, 447 213.500 C 446.450 213.840, 446 213.615, 446 213 C 446 212.385, 445.550 212.160, 445 212.500 C 444.450 212.840, 443.988 212.754, 443.973 212.309 C 443.958 211.864, 441.483 210.379, 438.473 209.008 C 435.463 207.638, 433 206.175, 433 205.758 C 433 205.341, 432.325 205, 431.500 205 C 430.675 205, 430 204.621, 430 204.157 C 430 203.694, 427.945 202.257, 425.432 200.965 C 422.920 199.673, 420.429 197.802, 419.897 196.808 C 419.365 195.814, 418.429 195, 417.818 195 C 415.889 195, 407.974 187.975, 393 172.973 C 378.879 158.825, 373.502 154.076, 368.123 151 C 366.680 150.175, 365.349 149.160, 365.165 148.744 C 364.980 148.328, 364.418 148.242, 363.915 148.553 C 363.412 148.864, 363 148.615, 363 148 C 363 147.385, 362.550 147.160, 362 147.500 C 361.450 147.840, 361 147.732, 361 147.260 C 361 146.788, 359.315 145.793, 357.256 145.048 C 355.197 144.303, 351.935 143.004, 350.006 142.161 C 348.078 141.318, 346.163 140.712, 345.750 140.814 C 345.337 140.916, 345 140.498, 345 139.883 C 345 139.259, 344.118 138.997, 343 139.290 C 341.900 139.577, 341 139.470, 341 139.051 C 341 137.568, 314.394 132.710, 307.313 132.899 C 305.009 132.961, 302.845 132.559, 302.504 132.006 C 301.677 130.668, 280 130.663, 280 132 C 280 132.550, 278.650 133, 277 133 L 274 133 274 84 C 274 45.399, 273.735 35.027, 272.750 35.127 C 272.063 35.197, 268.125 36.053, 264 37.031 M 605.214 140 C 618.554 172.810, 624.238 190.687, 628.975 214.741 C 634.382 242.195, 635.353 252.794, 635.415 285 C 635.480 318.622, 634.654 327.788, 629.021 356 C 617.306 414.663, 591.910 464.134, 554.040 502.055 C 517.141 539.005, 464.571 566.555, 406.500 579.375 C 381.358 584.925, 370.390 586.143, 340.407 586.711 C 319.123 587.115, 310.009 586.867, 297.907 585.556 C 274.279 582.996, 249.589 577.301, 227.212 569.248 C 214.146 564.546, 214.385 564.235, 221.306 576.906 C 228.624 590.302, 243.612 606.891, 257.786 617.282 C 279.716 633.360, 311.475 645.172, 345.755 650 C 365.407 652.768, 401.992 654.463, 413.500 653.139 C 418.450 652.569, 425.650 651.825, 429.500 651.486 C 485.104 646.588, 548.159 623.987, 597 591.446 C 637.996 564.132, 673.337 524.386, 694.763 481.500 C 703.040 464.933, 712.306 438.352, 717.596 416 C 721.555 399.271, 722.469 375.114, 719.922 354.478 C 711.890 289.388, 688.202 233.114, 647.558 182.569 C 634.731 166.617, 603.112 134.830, 605.214 140 M 275 168.122 C 262.755 169.421, 239.101 174.790, 236.080 176.955 C 231.393 180.315, 208.527 204.330, 200.808 214 C 177.145 243.644, 158.430 280.417, 150.170 313.500 C 144.570 335.933, 143.509 345.200, 143.586 371 C 143.661 396.068, 143.806 397.496, 148.459 418.951 C 154.283 445.810, 166.454 476.947, 180.236 500.250 C 182.431 503.962, 184.609 507, 185.075 507 C 185.542 507, 186.421 505.087, 187.031 502.750 C 197.066 464.249, 216.349 431.794, 245.678 404.037 C 276.279 375.076, 310.063 358.058, 354 349.471 C 359.773 348.343, 371.643 347.543, 391 346.976 C 423.020 346.039, 432.860 344.722, 448.490 339.281 C 477.173 329.297, 496.078 309.465, 504.450 280.576 C 508.116 267.926, 508.330 268.481, 499.250 267.072 C 476.395 263.524, 453.517 256.301, 432.500 245.997 C 408.413 234.187, 392.164 222.202, 370.008 199.906 C 362.579 192.429, 354.329 184.847, 351.675 183.056 C 333.184 170.579, 304.498 164.992, 275 168.122" stroke="none" fill="#0597d1" fill-rule="evenodd"/><path d="M 274.240 83.750 L 274 133 277.250 132.850 C 280.261 132.711, 280.299 132.670, 277.759 132.285 L 275.019 131.869 274.750 83.184 L 274.481 34.500 274.240 83.750 M 537.500 72 C 530.917 78.600, 525.756 84, 526.031 84 C 526.306 84, 531.917 78.600, 538.500 72 C 545.083 65.400, 550.244 60, 549.969 60 C 549.694 60, 544.083 65.400, 537.500 72 M 605.214 140 C 618.554 172.810, 624.238 190.687, 628.975 214.741 C 634.382 242.195, 635.353 252.794, 635.415 285 C 635.480 318.622, 634.654 327.788, 629.021 356 C 617.306 414.663, 591.910 464.134, 554.040 502.055 C 517.141 539.005, 464.571 566.555, 406.500 579.375 C 381.358 584.925, 370.390 586.143, 340.407 586.711 C 319.123 587.115, 310.009 586.867, 297.907 585.556 C 274.279 582.996, 249.589 577.301, 227.212 569.248 C 214.146 564.546, 214.385 564.235, 221.306 576.906 C 228.624 590.302, 243.612 606.891, 257.786 617.282 C 279.716 633.360, 311.475 645.172, 345.755 650 C 365.407 652.768, 401.992 654.463, 413.500 653.139 C 418.450 652.569, 425.650 651.825, 429.500 651.486 C 485.104 646.588, 548.159 623.987, 597 591.446 C 637.996 564.132, 673.337 524.386, 694.763 481.500 C 703.040 464.933, 712.306 438.352, 717.596 416 C 721.555 399.271, 722.469 375.114, 719.922 354.478 C 711.890 289.388, 688.202 233.114, 647.558 182.569 C 634.731 166.617, 603.112 134.830, 605.214 140 M 275 168.122 C 262.755 169.421, 239.101 174.790, 236.080 176.955 C 231.393 180.315, 208.527 204.330, 200.808 214 C 177.145 243.644, 158.430 280.417, 150.170 313.500 C 144.570 335.933, 143.509 345.200, 143.586 371 C 143.661 396.068, 143.806 397.496, 148.459 418.951 C 154.283 445.810, 166.454 476.947, 180.236 500.250 C 182.431 503.962, 184.609 507, 185.075 507 C 185.542 507, 186.421 505.087, 187.031 502.750 C 197.066 464.249, 216.349 431.794, 245.678 404.037 C 276.279 375.076, 310.063 358.058, 354 349.471 C 359.773 348.343, 371.643 347.543, 391 346.976 C 423.020 346.039, 432.860 344.722, 448.490 339.281 C 477.173 329.297, 496.078 309.465, 504.450 280.576 C 508.116 267.926, 508.330 268.481, 499.250 267.072 C 476.395 263.524, 453.517 256.301, 432.500 245.997 C 408.413 234.187, 392.164 222.202, 370.008 199.906 C 362.579 192.429, 354.329 184.847, 351.675 183.056 C 333.184 170.579, 304.498 164.992, 275 168.122 M 57.116 219.098 C 56.502 220.858, 56.030 223.019, 56.067 223.899 C 56.104 224.780, 56.759 223.493, 57.523 221.040 C 59.123 215.905, 58.787 214.304, 57.116 219.098 M 600.320 270 C 600.320 273.575, 600.502 275.038, 600.723 273.250 C 600.945 271.462, 600.945 268.538, 600.723 266.750 C 600.502 264.962, 600.320 266.425, 600.320 270 M 43.400 308.500 C 43.401 316.750, 43.556 319.992, 43.744 315.704 C 43.932 311.417, 43.931 304.667, 43.742 300.704 C 43.552 296.742, 43.399 300.250, 43.400 308.500 M 600.320 302 C 600.320 305.575, 600.502 307.038, 600.723 305.250 C 600.945 303.462, 600.945 300.538, 600.723 298.750 C 600.502 296.962, 600.320 298.425, 600.320 302 M 757.310 379.500 C 757.315 382.800, 757.502 384.029, 757.725 382.232 C 757.947 380.435, 757.943 377.735, 757.715 376.232 C 757.486 374.729, 757.304 376.200, 757.310 379.500 M 381.655 381.750 C 381.400 382.163, 383.805 382.500, 387 382.500 C 390.195 382.500, 392.600 382.163, 392.345 381.750 C 392.091 381.337, 389.685 381, 387 381 C 384.315 381, 381.909 381.337, 381.655 381.750 M 406.643 381.768 C 406.382 382.191, 408.043 382.392, 410.334 382.216 C 417.063 381.696, 417.882 381.241, 412.309 381.116 C 409.454 381.052, 406.904 381.346, 406.643 381.768 M 757.355 405.500 C 757.352 410.450, 757.521 412.601, 757.731 410.280 C 757.940 407.959, 757.943 403.909, 757.736 401.280 C 757.530 398.651, 757.358 400.550, 757.355 405.500 M 326.750 551.732 C 329.087 551.943, 332.913 551.943, 335.250 551.732 C 337.587 551.522, 335.675 551.349, 331 551.349 C 326.325 551.349, 324.413 551.522, 326.750 551.732 M 179.683 567 C 180.011 569.475, 180.441 571.688, 180.639 571.917 C 181.391 572.785, 180.820 566.410, 179.974 564.500 C 179.383 563.165, 179.286 563.995, 179.683 567 M 402.750 764.732 C 405.087 764.943, 408.913 764.943, 411.250 764.732 C 413.587 764.522, 411.675 764.349, 407 764.349 C 402.325 764.349, 400.413 764.522, 402.750 764.732" stroke="none" fill="#b3e5fb" fill-rule="evenodd"/></svg>